<svg xmlns="http://www.w3.org/2000/svg" viewBox="0 0 15.4 16.2"><defs><style>.cls-1{fill:#82cbcb;}</style></defs><title>r1</title><g id="Layer_2" data-name="Layer 2"><g id="Layer_1-2" data-name="Layer 1"><path class="cls-1" d="M15.14,9.12A11.09,11.09,0,0,0,11,3.81l-.11-.06a5.12,5.12,0,0,0-.46-1A5.7,5.7,0,0,0,7.13.14C4.41-.48.8,1,.25,4A12,12,0,0,0,.08,6.71,4.67,4.67,0,0,0,0,7.78a6,6,0,0,0,1.74,4,12,12,0,0,0,.78,1.05,9.79,9.79,0,0,0,7.22,3.36A5.4,5.4,0,0,0,14.14,14,5.25,5.25,0,0,0,15.14,9.12Z"/></g></g></svg>