<svg xmlns="http://www.w3.org/2000/svg" viewBox="0 0 40.28 34.9"><defs><style>.cls-1{fill:#7a98ce;}.cls-2{fill:#82cbcb;}</style></defs><title>r12</title><g id="Layer_2" data-name="Layer 2"><g id="Layer_1-2" data-name="Layer 1"><path class="cls-1" d="M37.28,32.73l.24-.07A2.83,2.83,0,0,0,37.44,27,6.46,6.46,0,0,0,34,28.09a7,7,0,0,0-2.49,3.24,2.84,2.84,0,0,0,.29,2.18,2.89,2.89,0,0,0,1.69,1.3,2.86,2.86,0,0,0,3.35-1.71l.08-.08c.17-.18.14-.16.07-.1l.08-.09Zm-.1,0h.05Zm.28-.15h0Zm-.29.14h0Z"/><path class="cls-2" d="M9.74,0,5,.5A5.41,5.41,0,0,0,1.47,2,5.08,5.08,0,0,0,0,5.5c.11,2.48,2.21,5.28,5,5L9.74,10a5.41,5.41,0,0,0,3.54-1.46A5.08,5.08,0,0,0,14.74,5C14.63,2.54,12.53-.26,9.74,0Z"/></g></g></svg>