<svg xmlns="http://www.w3.org/2000/svg" viewBox="0 0 31.95 36.92"><defs><style>.cls-1{fill:#f4b7c0;}.cls-2{fill:#691e79;}</style></defs><title>r13</title><g id="Layer_2" data-name="Layer 2"><g id="Layer_1-2" data-name="Layer 1"><path class="cls-1" d="M10,30.6a5.32,5.32,0,0,0-1.46-3.54A5.08,5.08,0,0,0,5,25.6a5.05,5.05,0,0,0-3.54,1.46A5,5,0,0,0,0,30.6L.1,31.92a5.32,5.32,0,0,0,1.46,3.54A5.08,5.08,0,0,0,5.1,36.92a5.05,5.05,0,0,0,3.54-1.46,5,5,0,0,0,1.46-3.54Z"/><path class="cls-2" d="M27.12,10c6.43,0,6.45-10,0-10s-6.45,10,0,10Z"/></g></g></svg>