<svg xmlns="http://www.w3.org/2000/svg" viewBox="0 0 24.68 48.64"><defs><style>.cls-1{fill:#691e79;}.cls-2{fill:#82cbcb;}</style></defs><title>r14</title><g id="Layer_2" data-name="Layer 2"><g id="Layer_1-2" data-name="Layer 1"><path class="cls-1" d="M9.93,3.71,9.27,2.47a5.1,5.1,0,0,0-3-2.3,5.11,5.11,0,0,0-3.85.5A5.11,5.11,0,0,0,.64,7.51l.65,1.24a5.1,5.1,0,0,0,3,2.3,5.11,5.11,0,0,0,3.85-.5A5.11,5.11,0,0,0,9.93,3.71Z"/><path class="cls-2" d="M19.85,48.64c6.43,0,6.45-10,0-10s-6.45,10,0,10Z"/></g></g></svg>