<svg xmlns="http://www.w3.org/2000/svg" viewBox="0 0 53.14 19.61"><defs><style>.cls-1{fill:#f4b7c0;}.cls-2{fill:#82cbcb;}</style></defs><title>r15</title><g id="Layer_2" data-name="Layer 2"><g id="Layer_1-2" data-name="Layer 1"><path class="cls-1" d="M48.58,19.61c6.07,0,6.08-9.43,0-9.43s-6.08,9.43,0,9.43Z"/><path class="cls-2" d="M6.89,10.67,9.76,8.54A5,5,0,0,0,11.87,5.8a4.69,4.69,0,0,0-.46-3.53A4.63,4.63,0,0,0,8.66.16,4.47,4.47,0,0,0,5.13.62L2.26,2.75A5,5,0,0,0,.15,5.49,4.69,4.69,0,0,0,.62,9a4.63,4.63,0,0,0,2.74,2.11,4.47,4.47,0,0,0,3.53-.46Z"/></g></g></svg>