<svg xmlns="http://www.w3.org/2000/svg" viewBox="0 0 15.43 19.23"><defs><style>.cls-1{fill:#cf6ea6;}</style></defs><title>r16</title><g id="Layer_2" data-name="Layer 2"><g id="Layer_1-2" data-name="Layer 1"><path class="cls-1" d="M14.76,11.71l-.56-.79a5,5,0,0,0-.33-5,6.91,6.91,0,0,0-1.09-2.88,6.65,6.65,0,0,0-4.68-3,5.74,5.74,0,0,0-6.17,4.2,6.11,6.11,0,0,0-.26,1.22C.13,7-.69,9.69.75,11.58L3,14.51a5.49,5.49,0,0,0,3,2.3l.24,0a5.31,5.31,0,0,0,2.92,2.22,5.11,5.11,0,0,0,3.85-.5,5,5,0,0,0,2.3-3A4.94,4.94,0,0,0,14.76,11.71Z"/></g></g></svg>