<svg xmlns="http://www.w3.org/2000/svg" viewBox="0 0 33.23 17.14"><defs><style>.cls-1{fill:#cf6ea6;}.cls-2{fill:#f4b7c0;}</style></defs><title>r18</title><g id="Layer_2" data-name="Layer 2"><g id="Layer_1-2" data-name="Layer 1"><path class="cls-1" d="M29.91,3.67A31.54,31.54,0,0,0,23,.24c-2.45-.94-5.59,1-6.15,3.49a5.24,5.24,0,0,0,.07,2.69,5.19,5.19,0,0,0,.8,5.93c1.91,2.3,4.42,4.32,7.55,4.45a7.94,7.94,0,0,0,7.15-4C34.23,9.48,32.89,5.78,29.91,3.67Z"/><path class="cls-2" d="M3.65,12.79l.22.09-1.19-.5c.15.07.79.29.84.46-.08-.26-1-.79-.28-.16q.37.42-.08-.14t-.1-.12c.16.28.32.55.45.85L3,12.07a5.78,5.78,0,0,1,.31,1.16L3.15,11.9l0,.24a5.43,5.43,0,0,0,1.46,3.54,5,5,0,0,0,7.07,0,4.84,4.84,0,0,0,1.46-3.54A10.18,10.18,0,0,0,11.42,7,10.82,10.82,0,0,0,6.31,3.15a5,5,0,0,0-3.85.5A5,5,0,0,0,.67,10.5a5.75,5.75,0,0,0,3,2.3Z"/></g></g></svg>