<svg xmlns="http://www.w3.org/2000/svg" viewBox="0 0 17.17 35.58"><defs><style>.cls-1{fill:#691e79;}.cls-2{fill:#f4b7c0;}</style></defs><title>r19</title><g id="Layer_2" data-name="Layer 2"><g id="Layer_1-2" data-name="Layer 1"><path class="cls-1" d="M4.83,10c6.43,0,6.45-10,0-10s-6.45,10,0,10Z"/><path class="cls-2" d="M17,28.28a2.91,2.91,0,0,0-.14-.46A7.1,7.1,0,0,0,15.12,25,6.34,6.34,0,0,0,6,25.3a7.06,7.06,0,0,0-1.62,2.91,7,7,0,0,0-.21,1.71,5.66,5.66,0,0,0,2.58,4.76,5.24,5.24,0,0,0,3.47.6,5.07,5.07,0,0,0,6-2.13A6.46,6.46,0,0,0,17.17,30,7.38,7.38,0,0,0,17,28.28Z"/></g></g></svg>