<svg xmlns="http://www.w3.org/2000/svg" viewBox="0 0 46 14.11"><defs><style>.cls-1{fill:#82cbcb;}.cls-2{fill:#cf6ea6;}</style></defs><title>r20</title><g id="Layer_2" data-name="Layer 2"><g id="Layer_1-2" data-name="Layer 1"><path class="cls-1" d="M7.55,7l.63-2.2A3.89,3.89,0,0,0,5.5.11,3.92,3.92,0,0,0,.77,2.79L.13,5A3.89,3.89,0,0,0,2.82,9.72,3.92,3.92,0,0,0,7.55,7Z"/><path class="cls-2" d="M38.84,6.66a3.47,3.47,0,0,1-.37.61l.6-.78a3.69,3.69,0,0,1-.51.51l.78-.6a3.69,3.69,0,0,1-.61.37l.92-.39a3.47,3.47,0,0,1-.68.21,3.89,3.89,0,0,0-2.3,1.77A3.85,3.85,0,0,0,38,13.62,4.26,4.26,0,0,0,41,14a6.63,6.63,0,0,0,4.47-3.47,4.14,4.14,0,0,0,.39-3,3.92,3.92,0,0,0-1.77-2.3,3.88,3.88,0,0,0-3-.39,3.77,3.77,0,0,0-2.3,1.77Z"/></g></g></svg>