<svg xmlns="http://www.w3.org/2000/svg" viewBox="0 0 61.37 31.18"><defs><style>.cls-1{fill:#691e79;}.cls-2{fill:#7a98ce;}</style></defs><title>r28</title><g id="Layer_2" data-name="Layer 2"><g id="Layer_1-2" data-name="Layer 1"><path class="cls-1" d="M56.54,10C63,10,63,0,56.54,0s-6.45,10,0,10Z"/><path class="cls-2" d="M2,18.77A7.47,7.47,0,0,0,.2,22a7.77,7.77,0,0,0,.09,3.85A7.51,7.51,0,0,0,5.4,31a5.06,5.06,0,0,0,6.15-3.49,5.09,5.09,0,0,0-3.49-6.15,1.93,1.93,0,0,1-.33-.11l1.19.5a2.93,2.93,0,0,1-.44-.26l1,.78A3,3,0,0,1,9,21.8l.78,1a3.88,3.88,0,0,1-.26-.45l.5,1.19a3.38,3.38,0,0,1-.23-.83L10,24.05a3.29,3.29,0,0,1,0-.69L9.84,24.7a3.18,3.18,0,0,1,.14-.49l-.5,1.19A2.84,2.84,0,0,1,9.72,25l-.78,1,.11-.13a5.36,5.36,0,0,0,1.46-3.54,5.09,5.09,0,0,0-1.46-3.54c-1.85-1.7-5.28-2.14-7.07,0Z"/></g></g></svg>