<svg xmlns="http://www.w3.org/2000/svg" viewBox="0 0 14.64 13.01"><defs><style>.cls-1{fill:#82cbcb;}.cls-2{fill:#7a98ce;}</style></defs><title>r37</title><g id="Layer_2" data-name="Layer 2"><g id="Layer_1-2" data-name="Layer 1"><path class="cls-1" d="M12.2,2.76,10.33,1.59a5.1,5.1,0,0,0-5.72.48,15,15,0,0,0-2.14.78,5,5,0,0,0-2.3,3,5.11,5.11,0,0,0,.5,3.85A5.08,5.08,0,0,0,7.2,11.61h0c-.79.37-.21.13.13,0h.1c.29.09.58.17.87.28a5,5,0,0,0,3.85-.5,5.18,5.18,0,0,0,2-2.39A5,5,0,0,0,12.2,2.76Z"/><path class="cls-2" d="M12.09,6.7a6.33,6.33,0,0,0-.89-3.53A6.93,6.93,0,0,0,8.76.78,6,6,0,0,0,5.92,0,5.06,5.06,0,0,0,4.08.26a5.32,5.32,0,0,0-3,2.3,4.9,4.9,0,0,0-.5,3.85,14,14,0,0,0,3.18,5.14A5.16,5.16,0,0,0,7.3,13a5.09,5.09,0,0,0,3.54-1.46A5.25,5.25,0,0,0,12.09,6.7Z"/></g></g></svg>