<svg xmlns="http://www.w3.org/2000/svg" viewBox="0 0 12.93 11.47"><defs><style>.cls-1{fill:#f4b7c0;}</style></defs><title>r7</title><g id="Layer_2" data-name="Layer 2"><g id="Layer_1-2" data-name="Layer 1"><path class="cls-1" d="M11,.49A3.91,3.91,0,0,0,5.94,1.66c.11-.13.06-.09-.15.14l-.09.09c-.3.15-.79.4-.42.27s.13,0-.06.05c-.36,0-1.31-.14-.39,0A3.93,3.93,0,0,0,.1,4.93c-.43,1.9.57,4.33,2.69,4.73.17,0,.33,0,.49.06A3.41,3.41,0,0,0,4.56,11,3.94,3.94,0,0,0,9.82,9.6L12.4,5.76A3.87,3.87,0,0,0,11,.49Z"/></g></g></svg>