<svg xmlns="http://www.w3.org/2000/svg" viewBox="0 0 12.04 12.31"><defs><style>.cls-1{fill:#691e79;}</style></defs><title>r8</title><g id="Layer_2" data-name="Layer 2"><g id="Layer_1-2" data-name="Layer 1"><path class="cls-1" d="M10.45,1.59A5.45,5.45,0,0,0,6.62,0,5.29,5.29,0,0,0,2.79,1.59L1.59,3.05A4.06,4.06,0,0,0,.47,4.8,4.08,4.08,0,0,0,0,6.88a5.52,5.52,0,0,0,1.59,3.83A5.45,5.45,0,0,0,5.42,12.3a5.29,5.29,0,0,0,3.83-1.59l1.2-1.46a4.06,4.06,0,0,0,1.12-1.74A4.08,4.08,0,0,0,12,5.42,5.52,5.52,0,0,0,10.45,1.59Z"/></g></g></svg>