<svg xmlns="http://www.w3.org/2000/svg" viewBox="0 0 36.61 15.5"><defs><style>.cls-1{fill:#7a98ce;}.cls-2{fill:#f4b7c0;}</style></defs><title>r9</title><g id="Layer_2" data-name="Layer 2"><g id="Layer_1-2" data-name="Layer 1"><path class="cls-1" d="M31.61,5.49l-4.35-.41a5,5,0,0,0-3.54,1.46,5.08,5.08,0,0,0-1.46,3.54,5.13,5.13,0,0,0,5,5l4.35.41A5,5,0,0,0,35.14,14a5.08,5.08,0,0,0,1.46-3.54A5.13,5.13,0,0,0,31.61,5.49Z"/><path class="cls-2" d="M10,5A5.32,5.32,0,0,0,8.54,1.47,5.08,5.08,0,0,0,5,0,5.05,5.05,0,0,0,1.47,1.47,5,5,0,0,0,0,5L.1,6.32A5.32,5.32,0,0,0,1.57,9.86,5.08,5.08,0,0,0,5.1,11.32,5.05,5.05,0,0,0,8.64,9.86,5,5,0,0,0,10.1,6.32Z"/></g></g></svg>