<svg xmlns="http://www.w3.org/2000/svg" viewBox="0 0 791.64 180.96"><defs><style>.cls-1,.cls-2{fill:#231815;}.cls-2,.cls-3{fill-rule:evenodd;}.cls-3{fill:#d2b690;}</style></defs><title>Asset 9</title><g id="Layer_2" data-name="Layer 2"><g id="Layer_1-2" data-name="Layer 1"><rect id="_Path_" data-name="&lt;Path&gt;" class="cls-1" x="209.37" y="51.45" width="17.33" height="90.22"/><rect id="_Path_2" data-name="&lt;Path&gt;" class="cls-1" x="251.6" y="51.45" width="17.35" height="90.22"/><path id="_Path_3" data-name="&lt;Path&gt;" class="cls-2" d="M329.07,82.12v59.55H311.75V82.12c0-8.17-2.8-25-14.76-25-8.18,0-23.37,2.58-28.57,39.45s-.7-13.51-.7-13.51,6-31,29-31,32.32,14.26,32.32,30.06"/><path id="_Compound_Path_" data-name="&lt;Compound Path&gt;" class="cls-2" d="M17.33,11.35c22.18,0,49.79-3.15,49.8,32s-27.61,32-49.79,32ZM95.71,141.67,24,81H34.67c15.76,0,51-3.28,51-37.62S50.43,5.77,34.67,5.77H0v135.9H17.33V82.75L87,141.67Z"/><path id="_Compound_Path_2" data-name="&lt;Compound Path&gt;" class="cls-2" d="M134.2,142.52c-15.2,0-28.31-8-28.31-21.14s7.78-21.19,19.65-26.18,24.09-9.95,29-13.53,5.58-7.73,5.58-11.67-1.75-13.14-15.83-13.14-28,13.5-28,13.5V61.28s13.21-9.84,29.65-9.84S176.31,61,176.31,74.33v33.4c0,8.25-.62,21.22,3,25.57s9.19,2.71,11.67,2.1v3.93a17.29,17.29,0,0,1-9.21,2.34c-5.81,0-13.84-4-18.51-14-4.65,7.87-13.5,14.8-29.09,14.8M160.09,81s-2.87,5.63-14.71,11.44-16.5,10.4-18.17,12.72a26.1,26.1,0,0,0-3.52,19.54c1.95,9.87,11.49,14.93,23,11.81s14.88-14.63,14.88-14.63a74.73,74.73,0,0,1-1.45-15.42Z"/><path id="_Path_4" data-name="&lt;Path&gt;" class="cls-2" d="M208.75,28.25a9.28,9.28,0,1,1,9.31,9.23,9.25,9.25,0,0,1-9.31-9.23"/><path id="_Path_5" data-name="&lt;Path&gt;" class="cls-2" d="M773.11,134.15a9.26,9.26,0,1,1,9.26,9.23,9.21,9.21,0,0,1-9.26-9.23"/><path id="_Path_6" data-name="&lt;Path&gt;" class="cls-2" d="M555.11,73.66c0,39.36,24.51,64.36,52.1,64.36s42.26-13.78,42.26-13.78V134s-16.29,9.4-41.69,9.4-71.5-16.54-71.51-69.72S582.4,3.94,607.78,3.94s41.69,9.4,41.69,9.4V23S634.81,9.28,607.21,9.28s-52.09,25-52.09,64.38"/><path id="_Compound_Path_3" data-name="&lt;Compound Path&gt;" class="cls-2" d="M754.21,97.34c0,25.43-19.45,46-43.43,46s-43.46-20.62-43.46-46.05,19.45-46,43.46-46,43.43,20.62,43.43,46M710.78,138c19.94,0,26.7-25.65,26.7-40.61s-6.76-40.6-26.7-40.6-26.71,25.68-26.71,40.6S690.79,138,710.78,138"/><path id="_Path_7" data-name="&lt;Path&gt;" class="cls-2" d="M416,37.07c-3.07-6-5.45-8.37-4.7-18.18.6-7.5,5.82-14.88,14.36-14.88C436.91,4,444,13.72,444,23.92s-2,17.76-15.78,26.88c-11.82,7.82-47.62,25.23-47.62,54,0,28.52,24.53,38.53,43,38.53a57.29,57.29,0,0,0,48.8-26.76c11.65-18.24,12.83-46.95,12.83-46.95h-2.41s-1.17,50.42-35.34,63c-32.32,12-49.61-5.87-50.42-28-1.22-32.82,25.27-46,37.13-54.81,9-6.63,13.37-13.22,13.37-24.86C447.61,12.59,440.08,0,426,0c-14.25,0-25.45,9.69-26.57,25-.8,10,4.72,19.18,4.72,19.18s11.23-3.74,11.83-7.13"/><polygon id="_Path_8" data-name="&lt;Path&gt;" class="cls-2" points="446.52 90.75 415.98 37.07 403.8 43.59 429.57 90.75 446.52 90.75"/><polygon id="_Path_9" data-name="&lt;Path&gt;" class="cls-3" points="446.39 90.75 495.65 180.96 513.84 180.96 463.31 90.75 446.39 90.75"/></g></g></svg>