<svg xmlns="http://www.w3.org/2000/svg" viewBox="0 0 288.39 495.32"><defs><style>.cls-1{fill:#e2e2e2;}</style></defs><title>t1</title><g id="Layer_2" data-name="Layer 2"><g id="Layer_1-2" data-name="Layer 1"><polygon class="cls-1" points="240.24 119.72 251.79 91 13.32 211.08 17.53 231.87 240.24 119.72"/><polygon class="cls-1" points="93.84 483.72 105.39 455 66.62 474.53 70.82 495.32 93.84 483.72"/><polygon class="cls-1" points="203.64 210.72 215.19 182 26.65 276.94 30.85 297.73 203.64 210.72"/><polygon class="cls-1" points="276.84 28.72 288.39 0 0 145.22 4.21 166.01 276.84 28.72"/><polygon class="cls-1" points="167.04 301.72 178.59 273 39.97 342.81 44.18 363.59 167.04 301.72"/><polygon class="cls-1" points="130.44 392.72 141.99 364 53.29 408.67 57.5 429.45 130.44 392.72"/></g></g></svg>