<svg xmlns="http://www.w3.org/2000/svg" viewBox="0 0 158.22 256.73"><defs><style>.cls-1{fill:#e2e2e2;}</style></defs><title>t10</title><g id="Layer_2" data-name="Layer 2"><g id="Layer_1-2" data-name="Layer 1"><polygon class="cls-1" points="25.38 222.46 26.49 232.19 52.08 239.15 58.47 231.45 25.38 222.46"/><polygon class="cls-1" points="22.84 200.22 23.95 209.95 66.69 221.56 73.08 213.87 22.84 200.22"/><polygon class="cls-1" points="20.3 177.97 21.41 187.7 81.31 203.97 87.7 196.28 20.3 177.97"/><polygon class="cls-1" points="27.91 244.71 29.02 254.44 37.46 256.73 43.85 249.04 27.91 244.71"/><polygon class="cls-1" points="17.76 155.72 18.87 165.46 95.92 186.39 102.31 178.69 17.76 155.72"/><polygon class="cls-1" points="8.72 76.47 154.38 116.04 158.22 111.42 150.65 105.6 7.61 66.74 8.72 76.47"/><polygon class="cls-1" points="2.54 22.25 3.65 31.98 83.05 53.55 64.12 38.98 2.54 22.25"/><polygon class="cls-1" points="0 0 1.11 9.73 39.78 20.24 20.86 5.67 0 0"/><polygon class="cls-1" points="5.08 44.49 6.19 54.23 126.31 86.86 107.39 72.29 5.08 44.49"/><polygon class="cls-1" points="15.23 133.48 16.34 143.21 110.53 168.8 116.93 161.11 15.23 133.48"/><polygon class="cls-1" points="12.69 111.23 13.8 120.96 125.15 151.21 131.54 143.52 12.69 111.23"/><polygon class="cls-1" points="10.15 88.98 11.26 98.72 139.76 133.63 146.16 125.93 10.15 88.98"/></g></g></svg>