<svg xmlns="http://www.w3.org/2000/svg" viewBox="0 0 362.64 364.39"><defs><style>.cls-1{fill:#e2e2e2;}</style></defs><title>t2</title><g id="Layer_2" data-name="Layer 2"><g id="Layer_1-2" data-name="Layer 1"><polygon class="cls-1" points="222.57 11.17 204.5 13.62 197.4 217.16 214.84 232.7 222.57 11.17"/><polygon class="cls-1" points="181.27 16.76 163.2 19.2 157.53 181.63 174.97 197.17 181.27 16.76"/><polygon class="cls-1" points="139.96 22.34 121.89 24.79 117.66 146.11 135.1 161.65 139.96 22.34"/><polygon class="cls-1" points="37.92 75.06 55.36 90.6 57.35 33.52 39.28 35.96 37.92 75.06"/><polygon class="cls-1" points="98.66 27.93 80.59 30.37 77.79 110.58 95.23 126.12 98.66 27.93"/><polygon class="cls-1" points="340.91 154.31 327.46 24.3 317.01 323.73 334.46 339.28 340.91 154.31"/><polygon class="cls-1" points="16.05 39.1 0 41.27 15.49 55.07 16.05 39.1"/><polygon class="cls-1" points="263.88 5.59 245.81 8.03 237.27 252.68 254.72 268.23 263.88 5.59"/><polygon class="cls-1" points="356.88 359.26 362.64 364.39 358.2 321.47 356.88 359.26"/><polygon class="cls-1" points="305.18 0 287.11 2.44 277.14 288.21 294.59 303.75 305.18 0"/></g></g></svg>