<svg xmlns="http://www.w3.org/2000/svg" viewBox="0 0 280.21 377.68"><defs><style>.cls-1{fill:#e2e2e2;}</style></defs><title>t3</title><g id="Layer_2" data-name="Layer 2"><g id="Layer_1-2" data-name="Layer 1"><polygon class="cls-1" points="157.4 370.73 146.7 365.12 151.74 377.68 157.4 370.73"/><polygon class="cls-1" points="130.96 325.95 137.84 343.09 167.31 358.53 175.03 349.04 130.96 325.95"/><polygon class="cls-1" points="43.43 108.09 273.08 228.41 280.21 219.64 276.3 216.57 36.54 90.95 43.43 108.09"/><polygon class="cls-1" points="115.22 286.79 122.11 303.92 184.94 336.84 192.65 327.36 115.22 286.79"/><polygon class="cls-1" points="90.38 70.84 0 0 11.95 29.75 90.38 70.84"/><polygon class="cls-1" points="52.28 130.12 59.16 147.25 255.45 250.1 263.17 240.61 52.28 130.12"/><polygon class="cls-1" points="20.81 51.78 27.69 68.92 209.37 164.11 157.31 123.31 20.81 51.78"/><polygon class="cls-1" points="99.49 247.62 106.37 264.75 202.57 315.16 210.28 305.67 99.49 247.62"/><polygon class="cls-1" points="68.02 169.28 74.9 186.42 237.83 271.78 245.54 262.3 68.02 169.28"/><polygon class="cls-1" points="83.75 208.45 90.64 225.59 220.2 293.47 227.91 283.98 83.75 208.45"/></g></g></svg>