<svg xmlns="http://www.w3.org/2000/svg" viewBox="0 0 191.1 250.59"><defs><style>.cls-1{fill:#e2e2e2;}</style></defs><title>t4</title><g id="Layer_2" data-name="Layer 2"><g id="Layer_1-2" data-name="Layer 1"><polygon class="cls-1" points="87.3 109.67 79.34 98.86 55.52 237.41 65.18 238.34 87.3 109.67"/><polygon class="cls-1" points="69.1 84.96 61.13 74.14 33.44 235.26 43.1 236.2 69.1 84.96"/><polygon class="cls-1" points="105.5 134.39 97.54 123.57 77.61 239.55 87.27 240.49 105.5 134.39"/><polygon class="cls-1" points="50.89 60.24 42.93 49.43 11.36 233.11 21.02 234.05 50.89 60.24"/><polygon class="cls-1" points="32.69 35.53 24.72 24.71 0.67 164.64 0.97 220.08 32.69 35.53"/><polygon class="cls-1" points="14.48 10.81 6.52 0 0 37.92 0.29 93.36 14.48 10.81"/><polygon class="cls-1" points="123.71 159.1 115.75 148.29 99.69 241.7 109.35 242.64 123.71 159.1"/><polygon class="cls-1" points="178.32 233.25 170.36 222.43 165.94 248.14 175.6 249.08 178.32 233.25"/><polygon class="cls-1" points="188.02 250.29 191.1 250.59 188.56 247.15 188.02 250.29"/><polygon class="cls-1" points="160.12 208.53 152.15 197.72 143.86 245.99 153.52 246.93 160.12 208.53"/><polygon class="cls-1" points="141.91 183.82 133.95 173 121.77 243.85 131.44 244.79 141.91 183.82"/></g></g></svg>