<svg xmlns="http://www.w3.org/2000/svg" viewBox="0 0 147.41 155.09"><defs><style>.cls-1{fill:#e2e2e2;}</style></defs><title>t5</title><g id="Layer_2" data-name="Layer 2"><g id="Layer_1-2" data-name="Layer 1"><polygon class="cls-1" points="42.44 83.31 29.33 93.71 84.47 152.81 94.31 155.09 98.36 143.26 42.44 83.31"/><polygon class="cls-1" points="13.11 106.58 0 116.98 19.36 137.74 48.45 144.47 13.11 106.58"/><polygon class="cls-1" points="147.05 1.04 147.41 0 146.65 0.6 147.05 1.04"/><polygon class="cls-1" points="101.09 36.76 87.99 47.16 119.65 81.09 125.77 63.2 101.09 36.76"/><polygon class="cls-1" points="130.43 13.48 117.32 23.88 133.35 41.06 139.47 23.18 130.43 13.48"/><polygon class="cls-1" points="71.77 60.03 58.66 70.43 105.94 121.12 112.07 103.23 71.77 60.03"/></g></g></svg>