<svg xmlns="http://www.w3.org/2000/svg" viewBox="0 0 229.23 89.68"><defs><style>.cls-1{fill:#e2e2e2;}</style></defs><title>t6</title><g id="Layer_2" data-name="Layer 2"><g id="Layer_1-2" data-name="Layer 1"><polygon class="cls-1" points="64.02 40.29 57.1 45.63 63.4 85.4 71.09 84.88 64.02 40.29"/><polygon class="cls-1" points="79.84 28.08 72.92 33.42 80.97 84.21 88.66 83.69 79.84 28.08"/><polygon class="cls-1" points="32.38 64.7 25.45 70.05 28.26 87.77 35.95 87.25 32.38 64.7"/><polygon class="cls-1" points="95.67 15.88 88.74 21.22 98.55 83.03 106.23 82.51 95.67 15.88"/><polygon class="cls-1" points="48.2 52.5 41.27 57.84 45.83 86.59 53.52 86.07 48.2 52.5"/><polygon class="cls-1" points="10.69 88.96 18.38 88.44 16.55 76.91 9.63 82.25 10.69 88.96"/><polygon class="cls-1" points="111.49 3.67 104.57 9.01 116.12 81.84 123.8 81.32 111.49 3.67"/><polygon class="cls-1" points="228.37 68.77 219.72 63.24 221.54 74.72 229.23 74.2 228.37 68.77"/><polygon class="cls-1" points="0.73 89.12 0 89.68 0.81 89.63 0.73 89.12"/><polygon class="cls-1" points="208.6 56.12 199.95 50.59 203.97 75.9 211.66 75.39 208.6 56.12"/><polygon class="cls-1" points="188.84 43.48 180.19 37.94 186.4 77.09 194.09 76.57 188.84 43.48"/><polygon class="cls-1" points="129.54 5.53 120.9 0 133.69 80.65 141.37 80.13 129.54 5.53"/><polygon class="cls-1" points="149.31 18.18 140.66 12.65 151.26 79.47 158.94 78.94 149.31 18.18"/><polygon class="cls-1" points="169.07 30.83 160.43 25.3 168.83 78.28 176.51 77.76 169.07 30.83"/></g></g></svg>