<svg xmlns="http://www.w3.org/2000/svg" viewBox="0 0 170.36 225.09"><defs><style>.cls-1{fill:#e2e2e2;}</style></defs><title>t7</title><g id="Layer_2" data-name="Layer 2"><g id="Layer_1-2" data-name="Layer 1"><polygon class="cls-1" points="91.71 88.92 88.74 83.78 63.1 104.72 67.01 109.1 91.71 88.92"/><polygon class="cls-1" points="83.64 74.96 80.67 69.81 52.51 92.83 56.41 97.21 83.64 74.96"/><polygon class="cls-1" points="107.84 116.85 104.87 111.7 84.3 128.51 88.2 132.89 107.84 116.85"/><polygon class="cls-1" points="99.77 102.88 96.8 97.74 73.7 116.61 77.6 120.99 99.77 102.88"/><polygon class="cls-1" points="75.58 60.99 72.61 55.85 41.91 80.93 45.81 85.31 75.58 60.99"/><polygon class="cls-1" points="51.38 19.11 48.41 13.96 10.11 45.25 14.02 49.63 51.38 19.11"/><polygon class="cls-1" points="59.45 33.07 56.48 27.93 20.71 57.15 24.62 61.53 59.45 33.07"/><polygon class="cls-1" points="67.51 47.03 64.54 41.89 31.31 69.04 35.21 73.42 67.51 47.03"/><polygon class="cls-1" points="40.35 0 2.47 30.95 0 33.9 3.42 37.74 43.32 5.14 40.35 0"/><polygon class="cls-1" points="164.29 214.59 161.32 209.44 158.48 211.76 162.39 216.14 164.29 214.59"/><polygon class="cls-1" points="156.23 200.62 153.26 195.48 147.88 199.87 151.79 204.25 156.23 200.62"/><polygon class="cls-1" points="169.38 223.4 169.08 223.65 170.36 225.09 169.38 223.4"/><polygon class="cls-1" points="148.16 186.66 145.19 181.52 137.29 187.97 141.19 192.35 148.16 186.66"/><polygon class="cls-1" points="123.97 144.77 121 139.63 105.49 152.29 109.4 156.68 123.97 144.77"/><polygon class="cls-1" points="115.9 130.81 112.93 125.67 94.89 140.4 98.8 144.78 115.9 130.81"/><polygon class="cls-1" points="140.1 172.7 137.13 167.55 126.69 176.08 130.59 180.46 140.1 172.7"/><polygon class="cls-1" points="132.03 158.74 129.06 153.59 116.09 164.19 120 168.57 132.03 158.74"/></g></g></svg>