<svg xmlns="http://www.w3.org/2000/svg" viewBox="0 0 109.28 237.38"><defs><style>.cls-1{fill:#e2e2e2;}</style></defs><title>t8</title><g id="Layer_2" data-name="Layer 2"><g id="Layer_1-2" data-name="Layer 1"><polygon class="cls-1" points="93.03 101.39 95.14 88.25 26.48 121.14 30.42 131.39 93.03 101.39"/><polygon class="cls-1" points="102.46 42.56 104.57 29.42 8.83 75.29 12.77 85.53 102.46 42.56"/><polygon class="cls-1" points="107.18 13.14 109.28 0 0 52.36 3.94 62.61 107.18 13.14"/><polygon class="cls-1" points="88.31 130.81 90.42 117.66 35.31 144.07 39.25 154.32 88.31 130.81"/><polygon class="cls-1" points="97.75 71.98 99.85 58.83 17.65 98.22 21.6 108.46 97.75 71.98"/><polygon class="cls-1" points="70.61 235.78 71.23 237.38 71.56 235.33 70.61 235.78"/><polygon class="cls-1" points="74.17 219.06 76.27 205.91 61.79 212.85 65.73 223.1 74.17 219.06"/><polygon class="cls-1" points="78.88 189.64 80.99 176.5 52.96 189.93 56.91 200.17 78.88 189.64"/><polygon class="cls-1" points="83.6 160.22 85.7 147.08 44.13 167 48.08 177.24 83.6 160.22"/></g></g></svg>