<svg xmlns="http://www.w3.org/2000/svg" viewBox="0 0 169.1 254.23"><defs><style>.cls-1{fill:#e2e2e2;}</style></defs><title>t9</title><g id="Layer_2" data-name="Layer 2"><g id="Layer_1-2" data-name="Layer 1"><polygon class="cls-1" points="103.69 127.33 96.8 115.21 62.07 213.49 71.86 217.37 103.69 127.33"/><polygon class="cls-1" points="81.88 88.92 75 76.81 31.03 201.2 40.83 205.07 81.88 88.92"/><polygon class="cls-1" points="60.08 50.52 53.2 38.4 0 188.91 9.79 192.78 60.08 50.52"/><polygon class="cls-1" points="38.27 12.12 31.39 0 22.22 25.96 14.73 78.74 38.27 12.12"/><polygon class="cls-1" points="169.1 242.53 162.22 230.41 155.17 250.35 164.96 254.23 169.1 242.53"/><polygon class="cls-1" points="125.49 165.73 118.61 153.61 93.1 225.78 102.89 229.65 125.49 165.73"/><polygon class="cls-1" points="147.29 204.13 140.41 192.01 124.13 238.07 133.93 241.94 147.29 204.13"/></g></g></svg>